<svg xmlns="http://www.w3.org/2000/svg" viewBox="0 0 512 512"><defs><style>.cls-1{fill:#101218;}.cls-2{fill:#fafafa;}.cls-3{fill:#819ec5;}</style></defs><g id="Layer_2" data-name="Layer 2"><rect class="cls-1" width="512" height="512" rx="87.57"/></g><g id="Layer_1" data-name="Layer 1"><path class="cls-2" d="M80.67,385.18v-258H122V232.5h72.1V127.17h41.36v258H194.12V270.67H122V385.18Z"/><path class="cls-3" d="M356.7,388.71q-26.16,0-45.24-8.83T282,354.79q-10.43-16.26-10.43-38.18h41q0,16.62,12,26.16t32.87,9.54q19.44,0,30.75-9.36t11.31-26a37.94,37.94,0,0,0-7.78-23.86Q383.92,283,369.43,279.5l-31.11-8.83q-29.34-8.13-45.24-28.1T277.18,195q0-21.92,9.72-37.82t27.57-24.91q17.83-9,42.23-9,36.76,0,58.32,19.26T436.93,194H395.58q0-15.9-10.25-25.09t-29-9.19q-18,0-28.1,8.66t-10.07,23.86q0,14.13,7.6,24t21.73,14.14l32.17,9.19q29.32,7.77,45.06,27.56t15.73,48.42q0,21.93-10.43,38.35t-29.16,25.63Q382.15,388.71,356.7,388.71Z"/></g></svg>