<svg xmlns="http://www.w3.org/2000/svg" viewBox="0 0 1080 1080"><defs><style>.cls-1{fill:#42566e;}.cls-2{fill:#fff;}</style></defs><g id="Layer_1" data-name="Layer 1"><rect class="cls-1" width="1080" height="1080"/></g><g id="Layer_2_copy" data-name="Layer 2 copy"><polygon points="449.54 109.62 608.22 203.47 580.05 382.16 754.71 108.21 892.97 183.16 908.59 467.96 794.67 422.78 713.91 587.17 951.85 489.59 917.72 759.73 637.49 934.7 503.86 852.02 472.62 1047.18 373.6 674.65 295.73 893.84 127.01 706.38 249.1 132.45 425.99 213.21 449.54 109.62"/><path class="cls-2" d="M430.92,364.56l42.67-200.71,72.72,40.73L463.9,724.28,413.47,447l5.82-29.08-92.12,20.35L285.48,656.42,206.6,558.81,269,288.93l-39.7,93.59,42.6-202.18,96,46.55L340.76,367.47Z"/><path class="cls-2" d="M861.83,413,810,285.26,637.38,641l41.43,13.81,221-94.39L637.38,713.47l-95.56-58.71L562.54,550l58.71-107-77.12,76,234.7-353.19,68,35.5Z"/></g></svg>